<?xml version="1.0" encoding="UTF-8" standalone="no"?>
<!DOCTYPE svg PUBLIC "-//W3C//DTD SVG 1.1//EN" "http://www.w3.org/Graphics/SVG/1.1/DTD/svg11.dtd">
<svg width="100%" height="100%" viewBox="0 0 151 98" version="1.1" xmlns="http://www.w3.org/2000/svg" xmlns:xlink="http://www.w3.org/1999/xlink" xml:space="preserve" xmlns:serif="http://www.serif.com/" style="fill-rule:evenodd;clip-rule:evenodd;stroke-linejoin:round;stroke-miterlimit:2;">
    <g transform="matrix(1,0,0,1,-418.876,-564.993)">
        <g transform="matrix(1,0,0,8.7092,-25.4446,-385.007)">
            <g transform="matrix(1,0,0,1.05552,-2.10319,30.9598)">
                <g transform="matrix(0.350602,0,0,0.038139,-151.444,36.069)">
                    <path d="M1731.6,994.839L2108.45,994.839C2115.7,994.839 2122.29,997.8 2127.06,1002.57C2131.83,1007.34 2134.79,1013.93 2134.79,1021.18L2134.79,1247.1C2134.79,1254.35 2131.83,1260.94 2127.06,1265.71C2122.29,1270.48 2115.7,1273.44 2108.45,1273.44L1731.6,1273.44C1724.35,1273.44 1717.76,1270.48 1712.99,1265.71C1708.22,1260.94 1705.26,1254.35 1705.26,1247.1L1705.26,1021.18C1705.26,1013.93 1708.22,1007.34 1712.99,1002.57C1717.76,997.8 1724.35,994.839 1731.6,994.839Z" style="fill:url(#_Linear1);"/>
                </g>
                <g transform="matrix(0.517799,0,0,0.056327,469.917,73.8595)">
                    <path d="M180.504,17.286C191.249,17.286 200.092,26.128 200.092,36.874L200.092,108.723L0,108.723L0,36.874C0,26.128 8.842,17.286 19.588,17.286L180.504,17.286ZM65.723,85.353L65.697,46.605L57.479,46.605L57.479,62.21L41.017,62.21L41.017,46.605L32.773,46.605L32.773,85.353L41.042,85.353L41.042,69.319L57.504,69.319L57.504,85.353L65.723,85.353ZM112.865,78.647L97.159,78.546L97.159,78.395L105.227,71.135C110.706,66.177 113.445,61.437 113.445,56.916C113.559,53.839 112.257,50.873 109.916,48.874C107.351,46.824 104.118,45.791 100.84,45.975C96.875,45.932 92.986,47.074 89.672,49.252L89.672,56.412C92.282,53.961 95.698,52.544 99.277,52.429C103.235,52.429 105.201,54.269 105.201,57.95C105.182,59.622 104.693,61.256 103.79,62.664C102.349,64.732 100.655,66.612 98.748,68.261L87.655,78.924L87.655,85.353L112.865,85.353L112.865,78.647ZM80.849,84.849L80.975,84.748C81.804,83.977 82.256,82.88 82.21,81.748C82.232,80.58 81.732,79.461 80.849,78.698C79.913,77.885 78.71,77.445 77.47,77.462C76.234,77.438 75.032,77.869 74.092,78.672C73.161,79.417 72.629,80.556 72.655,81.748C72.636,82.921 73.146,84.042 74.042,84.798C74.953,85.619 76.144,86.061 77.37,86.034C78.637,86.09 79.88,85.667 80.849,84.849ZM172.109,82.479L172.235,82.378C174.962,79.943 176.445,76.4 176.268,72.748C176.416,69.564 175.151,66.471 172.815,64.303C170.236,62.134 166.927,61.024 163.563,61.202C162.493,61.204 161.424,61.263 160.361,61.378L160.361,53.261L174.378,53.261L174.378,46.605L153.277,46.605L153.277,68.008C155.386,67.757 157.506,67.614 159.63,67.58C165.151,67.58 167.924,69.572 167.924,73.555C168.01,75.309 167.273,77.008 165.932,78.143C164.389,79.321 162.476,79.911 160.537,79.807C157.566,79.771 154.664,78.897 152.168,77.286L152.168,84.37C155.09,85.575 158.236,86.142 161.395,86.034C165.284,86.23 169.108,84.961 172.109,82.479ZM142.21,82.227L142.336,82.126C144.737,79.548 146.016,76.118 145.89,72.597C146.036,69.451 145.012,66.361 143.016,63.924C141.093,61.691 138.246,60.463 135.302,60.597C132.005,60.43 128.861,62.05 127.084,64.832C126.938,61.594 127.879,58.399 129.756,55.756C131.409,53.485 134.082,52.172 136.89,52.252C139.142,52.234 141.359,52.808 143.319,53.916L143.319,47.109C141.104,46.326 138.759,45.975 136.411,46.076C131.412,45.88 126.628,48.178 123.655,52.202C120.434,56.861 118.83,62.451 119.092,68.109C118.837,72.751 120.074,77.355 122.622,81.244C124.968,84.424 128.758,86.224 132.706,86.034C136.268,86.166 139.724,84.782 142.21,82.227ZM132.781,66.496C136.361,66.496 138.151,68.656 138.151,72.975C138.217,74.694 137.711,76.388 136.714,77.79C135.805,78.995 134.38,79.705 132.87,79.705C131.284,79.705 129.796,78.922 128.899,77.614C127.866,76.14 127.335,74.371 127.386,72.572C127.331,70.985 127.86,69.432 128.874,68.21C129.858,67.089 131.29,66.461 132.781,66.496ZM0,112.176L200.092,112.176L200.092,163.151C200.078,173.887 191.24,182.714 180.504,182.714L19.588,182.714C8.852,182.714 0.014,173.887 0,163.151L0,112.176ZM175.613,133.933L175.638,126.546C172.778,125.562 169.763,125.101 166.739,125.185C161.572,124.997 156.553,126.971 152.899,130.63C149.277,134.385 147.337,139.459 147.529,144.672C147.284,149.49 149.026,154.204 152.344,157.706C155.795,161.081 160.506,162.865 165.327,162.622C168.866,162.755 172.39,162.091 175.638,160.681L175.638,153.596C172.965,155.166 169.914,155.977 166.815,155.941C163.746,156.075 160.768,154.858 158.672,152.613C156.589,150.259 155.503,147.182 155.647,144.042C155.518,140.786 156.657,137.603 158.823,135.168C161.032,132.884 164.119,131.653 167.294,131.79C170.209,131.738 173.085,132.479 175.613,133.933ZM98.521,161.916L98.546,155.588L84.832,155.588L84.832,146.84L96.781,146.84L96.781,140.563L84.832,140.563L84.832,131.992L97.689,131.992L97.689,125.689L77.092,125.689L77.092,161.916L98.521,161.916ZM130.235,161.916L142.84,125.689L134.773,125.689L126.857,151.202C126.469,152.399 126.199,153.632 126.05,154.882C125.921,153.658 125.668,152.45 125.294,151.277L117.479,125.689L109.134,125.689L121.563,161.916L130.235,161.916ZM63.227,161.916L63.176,125.689L55.462,125.689L55.462,140.311L40.084,140.311L40.084,125.689L32.37,125.689L32.37,161.916L40.084,161.916L40.084,146.966L55.462,146.966L55.462,161.916L63.227,161.916Z" style="fill:rgb(4,0,0);"/>
                </g>
            </g>
        </g>
    </g>
    <defs>
        <linearGradient id="_Linear1" x1="0" y1="0" x2="1" y2="0" gradientUnits="userSpaceOnUse" gradientTransform="matrix(338.6,338.6,-338.6,338.6,1750.72,964.838)"><stop offset="0" style="stop-color:rgb(253,249,133);stop-opacity:1"/><stop offset="0.3" style="stop-color:rgb(232,151,33);stop-opacity:1"/><stop offset="0.6" style="stop-color:rgb(249,233,115);stop-opacity:1"/><stop offset="0.7" style="stop-color:rgb(250,239,121);stop-opacity:1"/><stop offset="1" style="stop-color:rgb(232,151,33);stop-opacity:1"/></linearGradient>
    </defs>
</svg>
