<svg width="151" height="98" viewBox="0 0 151 98" fill="none" xmlns="http://www.w3.org/2000/svg">
<g clip-path="url(#clip0_4_1345)">
<path d="M145.748 4.84521H4.84131V59.2972H145.748V4.84521Z" fill="#101010"/>
<path fill-rule="evenodd" clip-rule="evenodd" d="M6.20164 57.9403H144.391V9.23472C144.391 8.40379 144.048 7.6465 143.497 7.09606C142.947 6.54211 142.19 6.20203 141.359 6.20203H9.23436C8.40343 6.20203 7.64614 6.54211 7.09569 7.09606C6.54525 7.6465 6.20164 8.40379 6.20164 9.23472V57.9403ZM9.23436 -0.000488281H141.359C143.901 -0.000488281 146.211 1.03765 147.883 2.71002C149.556 4.38239 150.594 6.69286 150.594 9.23472V88.4427C150.594 90.9846 149.556 93.295 147.883 94.9674C146.211 96.6398 143.901 97.6776 141.359 97.6776H9.23436C6.69249 97.6776 4.38203 96.6398 2.70966 94.9674C1.03729 93.295 -0.000488281 90.9846 -0.000488281 88.4427V9.23472C-0.000488281 6.69286 1.03729 4.38239 2.70966 2.71002C4.38203 1.03765 6.69249 -0.000488281 9.23436 -0.000488281Z" fill="url(#paint0_linear_4_1345)"/>
<path fill-rule="evenodd" clip-rule="evenodd" d="M69.906 29.1244H64.9099V37.6686H57.8383L67.4588 16.5098H61.9789L52.106 37.921V42.4578H64.9099V47.1804H69.906V42.4578H72.248V37.6686H69.906V29.1244Z" fill="url(#paint1_linear_4_1345)"/>
<path fill-rule="evenodd" clip-rule="evenodd" d="M95.5981 47.1593H101.653L90.8965 28.8193L100.373 16.4851H94.0869L82.773 32.2131V16.4851H77.7349V47.1593H82.773V39.3865L87.4781 33.2649L95.5981 47.1593Z" fill="url(#paint2_linear_4_1345)"/>
<path d="M20.8576 80.0879C20.8576 81.3711 20.5246 82.3633 19.8584 83.0645C19.1923 83.7657 18.2492 84.1198 17.0326 84.1198C15.823 84.1198 14.8904 83.7657 14.2277 83.0645C13.5616 82.3633 13.2356 81.3711 13.2356 80.0879V67.4452H9.99951V79.9968C9.99951 81.5359 10.2765 82.8577 10.8234 83.9516C11.3739 85.0454 12.1767 85.8799 13.2356 86.4514C14.2874 87.0228 15.5565 87.3103 17.0326 87.3103C18.5191 87.3103 19.7918 87.0228 20.8541 86.4514C21.9094 85.8799 22.7123 85.0454 23.2628 83.9516C23.8167 82.8577 24.0902 81.5359 24.0902 79.9968V67.4452H20.8576V80.0879Z" fill="#101010"/>
<path d="M59.5793 80.1721C59.5793 81.3886 59.2076 82.3318 58.4748 83.0049C57.742 83.6746 56.7078 84.0111 55.3755 84.0111H52.1534V70.5445H55.3755C56.7078 70.5445 57.742 70.8741 58.4748 71.5438C59.2076 72.2099 59.5793 73.16 59.5793 74.3836V80.1721ZM62.0089 70.6778C61.4164 69.626 60.5504 68.8231 59.411 68.2726C58.275 67.7222 56.9077 67.4452 55.2914 67.4452H48.9209V87.107H55.2774C56.9112 87.107 58.296 86.8195 59.439 86.255C60.5854 85.687 61.448 84.8772 62.03 83.8218C62.612 82.77 62.8994 81.5148 62.8994 80.0634V74.4923C62.8994 73.0023 62.6049 71.7331 62.0089 70.6778Z" fill="#101010"/>
<path d="M40.3741 75.8456H32.6363V67.4452H29.4072V87.107H32.6363V78.9379H40.3741V87.107H43.6031V67.4452H40.3741V75.8456Z" fill="#101010"/>
<path d="M79.1037 86.7908V68.502H82.7964V75.7002H90.0321V68.502H93.7247V86.7908H90.0321V78.7941H82.7964V86.7908H79.1037ZM97.5422 68.502H104.291C105.813 68.502 106.973 68.6184 107.772 68.8513C108.845 69.1674 109.764 69.7287 110.529 70.5355C111.294 71.3422 111.876 72.3319 112.275 73.5046C112.675 74.669 112.874 76.1078 112.874 77.821C112.874 79.3264 112.687 80.6238 112.313 81.7133C111.855 83.044 111.203 84.1211 110.354 84.9444C109.714 85.5682 108.849 86.0547 107.759 86.404C106.944 86.6619 105.855 86.7908 104.491 86.7908H97.5422V68.502ZM101.235 71.5959V83.7094H103.992C105.023 83.7094 105.768 83.6512 106.225 83.5347C106.824 83.385 107.319 83.1314 107.71 82.7737C108.109 82.4161 108.433 81.8298 108.683 81.0147C108.932 80.1913 109.057 79.0727 109.057 77.6589C109.057 76.245 108.932 75.1596 108.683 74.4028C108.433 73.646 108.084 73.0555 107.635 72.6313C107.186 72.2072 106.616 71.9202 105.926 71.7705C105.41 71.6541 104.399 71.5959 102.894 71.5959H101.235ZM115.968 86.7908V68.502H121.495L124.813 80.9773L128.094 68.502H133.633V86.7908H130.202V72.3943L126.572 86.7908H123.017L119.399 72.3943V86.7908H115.968ZM137.189 86.7908V68.502H140.881V86.7908H137.189Z" fill="#101010"/>
</g>
<defs>
<linearGradient id="paint0_linear_4_1345" x1="15.9379" y1="-10.5189" x2="134.652" y2="108.195" gradientUnits="userSpaceOnUse">
<stop stop-color="#FDF985"/>
<stop offset="0.3" stop-color="#E89721"/>
<stop offset="0.6" stop-color="#F9E973"/>
<stop offset="0.7" stop-color="#FAEF79"/>
<stop offset="1" stop-color="#E89721"/>
</linearGradient>
<linearGradient id="paint1_linear_4_1345" x1="118.794" y1="55.3179" x2="2.24476" y2="4.29415" gradientUnits="userSpaceOnUse">
<stop stop-color="#FDF985"/>
<stop offset="0.3" stop-color="#E89721"/>
<stop offset="0.6" stop-color="#F9E973"/>
<stop offset="0.7" stop-color="#FAEF79"/>
<stop offset="1" stop-color="#E89721"/>
</linearGradient>
<linearGradient id="paint2_linear_4_1345" x1="122.643" y1="46.5282" x2="6.09427" y2="-4.49559" gradientUnits="userSpaceOnUse">
<stop stop-color="#FDF985"/>
<stop offset="0.3" stop-color="#E89721"/>
<stop offset="0.6" stop-color="#F9E973"/>
<stop offset="0.7" stop-color="#FAEF79"/>
<stop offset="1" stop-color="#E89721"/>
</linearGradient>
<clipPath id="clip0_4_1345">
<rect width="151" height="98" fill="white"/>
</clipPath>
</defs>
</svg>
