<svg width="1450" height="753" viewBox="0 0 1450 753" fill="none" xmlns="http://www.w3.org/2000/svg">
<g id="signal">
<mask id="mask0_74_951" style="mask-type:alpha" maskUnits="userSpaceOnUse" x="0" y="0" width="1450" height="753">
<rect id="mask" width="1450" height="753" fill="#D9D9D9"/>
</mask>
<g mask="url(#mask0_74_951)">
<g id="cicle06" opacity="0.3">
<mask id="path-2-inside-1_74_951" fill="white">
<path d="M1396 752.5C1396 574.407 1325.25 403.608 1199.32 277.678C1073.39 151.747 902.593 81 724.5 81C546.407 81 375.609 151.747 249.678 277.678C123.747 403.608 53 574.407 53 752.5L724.5 752.5H1396Z"/>
</mask>
<path d="M1396 752.5C1396 574.407 1325.25 403.608 1199.32 277.678C1073.39 151.747 902.593 81 724.5 81C546.407 81 375.609 151.747 249.678 277.678C123.747 403.608 53 574.407 53 752.5L724.5 752.5H1396Z" fill="url(#paint0_radial_74_951)"/>
<path d="M1396 752.5C1396 574.407 1325.25 403.608 1199.32 277.678C1073.39 151.747 902.593 81 724.5 81C546.407 81 375.609 151.747 249.678 277.678C123.747 403.608 53 574.407 53 752.5L724.5 752.5H1396Z" stroke="#C7C7C7" stroke-opacity="0.2" stroke-width="2" mask="url(#path-2-inside-1_74_951)"/>
<path d="M1396 752.5C1396 574.407 1325.25 403.608 1199.32 277.678C1073.39 151.747 902.593 81 724.5 81C546.407 81 375.609 151.747 249.678 277.678C123.747 403.608 53 574.407 53 752.5L724.5 752.5H1396Z" stroke="url(#paint1_angular_74_951)" stroke-width="2" mask="url(#path-2-inside-1_74_951)"/>
</g>
<g id="cicle05" opacity="0.3">
<mask id="path-3-inside-2_74_951" fill="white">
<path d="M1446 752.5C1446 561.146 1369.99 377.63 1234.68 242.322C1099.37 107.015 915.854 31 724.5 31C533.146 31 349.63 107.015 214.323 242.322C79.015 377.63 3.00003 561.146 3 752.5L724.5 752.5H1446Z"/>
</mask>
<path d="M1446 752.5C1446 561.146 1369.99 377.63 1234.68 242.322C1099.37 107.015 915.854 31 724.5 31C533.146 31 349.63 107.015 214.323 242.322C79.015 377.63 3.00003 561.146 3 752.5L724.5 752.5H1446Z" stroke="#C7C7C7" stroke-opacity="0.2" stroke-width="2" mask="url(#path-3-inside-2_74_951)"/>
<path d="M1446 752.5C1446 561.146 1369.99 377.63 1234.68 242.322C1099.37 107.015 915.854 31 724.5 31C533.146 31 349.63 107.015 214.323 242.322C79.015 377.63 3.00003 561.146 3 752.5L724.5 752.5H1446Z" stroke="url(#paint2_angular_74_951)" stroke-width="2" mask="url(#path-3-inside-2_74_951)"/>
</g>
<g id="cicle04" opacity="0.475">
<mask id="path-4-inside-3_74_951" fill="white">
<path d="M1296 752.5C1296 600.929 1235.79 455.566 1128.61 348.388C1021.43 241.211 876.071 181 724.5 181C572.929 181 427.566 241.211 320.389 348.388C213.211 455.565 153 600.929 153 752.5L724.5 752.5H1296Z"/>
</mask>
<path d="M1296 752.5C1296 600.929 1235.79 455.566 1128.61 348.388C1021.43 241.211 876.071 181 724.5 181C572.929 181 427.566 241.211 320.389 348.388C213.211 455.565 153 600.929 153 752.5L724.5 752.5H1296Z" fill="url(#paint3_radial_74_951)"/>
<path d="M1296 752.5C1296 600.929 1235.79 455.566 1128.61 348.388C1021.43 241.211 876.071 181 724.5 181C572.929 181 427.566 241.211 320.389 348.388C213.211 455.565 153 600.929 153 752.5L724.5 752.5H1296Z" stroke="#C7C7C7" stroke-opacity="0.2" stroke-width="2" mask="url(#path-4-inside-3_74_951)"/>
<path d="M1296 752.5C1296 600.929 1235.79 455.566 1128.61 348.388C1021.43 241.211 876.071 181 724.5 181C572.929 181 427.566 241.211 320.389 348.388C213.211 455.565 153 600.929 153 752.5L724.5 752.5H1296Z" stroke="url(#paint4_angular_74_951)" stroke-width="2" mask="url(#path-4-inside-3_74_951)"/>
</g>
<g id="cicle03" opacity="0.65">
<mask id="path-5-inside-4_74_951" fill="white">
<path d="M1196 752.5C1196 627.45 1146.32 507.523 1057.9 419.099C969.477 330.676 849.55 281 724.5 281C599.45 281 479.523 330.676 391.099 419.099C302.676 507.523 253 627.45 253 752.5L724.5 752.5H1196Z"/>
</mask>
<path d="M1196 752.5C1196 627.45 1146.32 507.523 1057.9 419.099C969.477 330.676 849.55 281 724.5 281C599.45 281 479.523 330.676 391.099 419.099C302.676 507.523 253 627.45 253 752.5L724.5 752.5H1196Z" fill="url(#paint5_radial_74_951)"/>
<path d="M1196 752.5C1196 627.45 1146.32 507.523 1057.9 419.099C969.477 330.676 849.55 281 724.5 281C599.45 281 479.523 330.676 391.099 419.099C302.676 507.523 253 627.45 253 752.5L724.5 752.5H1196Z" stroke="#C7C7C7" stroke-opacity="0.2" stroke-width="2" mask="url(#path-5-inside-4_74_951)"/>
<path d="M1196 752.5C1196 627.45 1146.32 507.523 1057.9 419.099C969.477 330.676 849.55 281 724.5 281C599.45 281 479.523 330.676 391.099 419.099C302.676 507.523 253 627.45 253 752.5L724.5 752.5H1196Z" stroke="url(#paint6_angular_74_951)" stroke-width="2" mask="url(#path-5-inside-4_74_951)"/>
</g>
<g id="cicle02" opacity="0.825">
<mask id="path-6-inside-5_74_951" fill="white">
<path d="M1096 752.5C1096 653.972 1056.86 559.48 987.19 489.81C917.52 420.14 823.028 381 724.5 381C625.972 381 531.48 420.14 461.81 489.81C392.14 559.48 353 653.972 353 752.5L724.5 752.5H1096Z"/>
</mask>
<path d="M1096 752.5C1096 653.972 1056.86 559.48 987.19 489.81C917.52 420.14 823.028 381 724.5 381C625.972 381 531.48 420.14 461.81 489.81C392.14 559.48 353 653.972 353 752.5L724.5 752.5H1096Z" fill="url(#paint7_radial_74_951)"/>
<path d="M1096 752.5C1096 653.972 1056.86 559.48 987.19 489.81C917.52 420.14 823.028 381 724.5 381C625.972 381 531.48 420.14 461.81 489.81C392.14 559.48 353 653.972 353 752.5L724.5 752.5H1096Z" stroke="#C7C7C7" stroke-opacity="0.2" stroke-width="2" mask="url(#path-6-inside-5_74_951)"/>
<path d="M1096 752.5C1096 653.972 1056.86 559.48 987.19 489.81C917.52 420.14 823.028 381 724.5 381C625.972 381 531.48 420.14 461.81 489.81C392.14 559.48 353 653.972 353 752.5L724.5 752.5H1096Z" stroke="url(#paint8_angular_74_951)" stroke-width="2" mask="url(#path-6-inside-5_74_951)"/>
</g>
<g id="cicle01">
<mask id="path-7-inside-6_74_951" fill="white">
<path d="M996 752.5C996 680.494 967.396 611.437 916.479 560.521C865.563 509.604 796.506 481 724.5 481C652.494 481 583.437 509.604 532.521 560.52C481.604 611.437 453 680.494 453 752.5L724.5 752.5H996Z"/>
</mask>
<path d="M996 752.5C996 680.494 967.396 611.437 916.479 560.521C865.563 509.604 796.506 481 724.5 481C652.494 481 583.437 509.604 532.521 560.52C481.604 611.437 453 680.494 453 752.5L724.5 752.5H996Z" fill="url(#paint9_radial_74_951)"/>
<path d="M996 752.5C996 680.494 967.396 611.437 916.479 560.521C865.563 509.604 796.506 481 724.5 481C652.494 481 583.437 509.604 532.521 560.52C481.604 611.437 453 680.494 453 752.5L724.5 752.5H996Z" stroke="#C7C7C7" stroke-opacity="0.2" stroke-width="2" mask="url(#path-7-inside-6_74_951)"/>
<path d="M996 752.5C996 680.494 967.396 611.437 916.479 560.521C865.563 509.604 796.506 481 724.5 481C652.494 481 583.437 509.604 532.521 560.52C481.604 611.437 453 680.494 453 752.5L724.5 752.5H996Z" stroke="url(#paint10_angular_74_951)" stroke-width="2" mask="url(#path-7-inside-6_74_951)"/>
</g>
<g id="scan">
<circle id="Ellipse 467" cx="725" cy="753" r="11.5" fill="white" fill-opacity="0.3" stroke="url(#paint11_angular_74_951)"/>
<circle id="Ellipse 468" cx="725" cy="370" r="11.5" fill="white" fill-opacity="0.3" stroke="url(#paint12_angular_74_951)"/>
<circle id="Ellipse 472" cx="725" cy="470" r="11.5" fill="white" fill-opacity="0.3" stroke="url(#paint13_angular_74_951)"/>
<circle id="Ellipse 469" cx="725" cy="270" r="11.5" fill="white" fill-opacity="0.3" stroke="url(#paint14_angular_74_951)"/>
<circle id="Ellipse 470" cx="725" cy="181" r="11.5" fill="white" fill-opacity="0.3" stroke="url(#paint15_angular_74_951)"/>
<circle id="Ellipse 471" cx="725" cy="85" r="11.5" fill="white" fill-opacity="0.3" stroke="url(#paint16_angular_74_951)"/>
</g>
<g id="line">
<line id="Line 31" x1="724.5" y1="753" x2="724.5" y2="31" stroke="url(#paint17_linear_74_951)"/>
<line id="Line 32" x1="725.567" y1="753.021" x2="1086.57" y2="127.75" stroke="url(#paint18_linear_74_951)"/>
<line id="Line 34" y1="-0.5" x2="722" y2="-0.5" transform="matrix(-0.5 -0.866025 -0.866025 0.5 725.27 753.271)" stroke="url(#paint19_linear_74_951)"/>
<line id="Line 33" x1="740.75" y1="752.567" x2="1366.02" y2="391.567" stroke="url(#paint20_linear_74_951)"/>
<line id="Line 35" y1="-0.5" x2="722" y2="-0.5" transform="matrix(-0.866025 -0.5 -0.5 0.866025 710.27 753)" stroke="url(#paint21_linear_74_951)"/>
</g>
<ellipse id="light" cx="725.5" cy="752.5" rx="697.5" ry="5.5" fill="url(#paint22_linear_74_951)"/>
</g>
</g>
<defs>
<radialGradient id="paint0_radial_74_951" cx="0" cy="0" r="1" gradientUnits="userSpaceOnUse" gradientTransform="translate(725.779 752.5) rotate(90) scale(671.5 672.779)">
<stop stop-color="white" stop-opacity="0"/>
<stop offset="0.51169" stop-color="white" stop-opacity="0"/>
<stop offset="0.875761" stop-color="white" stop-opacity="0.02"/>
<stop offset="1" stop-color="white" stop-opacity="0.08"/>
</radialGradient>
<radialGradient id="paint1_angular_74_951" cx="0" cy="0" r="1" gradientUnits="userSpaceOnUse" gradientTransform="translate(724.5 752.5) rotate(90) scale(671.5)">
<stop stop-color="white" stop-opacity="0"/>
<stop offset="0.387339" stop-color="white" stop-opacity="0"/>
<stop offset="0.460711" stop-color="#FFF6F6"/>
<stop offset="0.54717" stop-color="#F0E8E8" stop-opacity="0"/>
<stop offset="1" stop-color="#999999" stop-opacity="0"/>
</radialGradient>
<radialGradient id="paint2_angular_74_951" cx="0" cy="0" r="1" gradientUnits="userSpaceOnUse" gradientTransform="translate(724.5 752.5) rotate(90) scale(721.5)">
<stop stop-color="white" stop-opacity="0"/>
<stop offset="0.387339" stop-color="white" stop-opacity="0"/>
<stop offset="0.460711" stop-color="#FFF6F6"/>
<stop offset="0.54717" stop-color="#F0E8E8" stop-opacity="0"/>
<stop offset="1" stop-color="#999999" stop-opacity="0"/>
</radialGradient>
<radialGradient id="paint3_radial_74_951" cx="0" cy="0" r="1" gradientUnits="userSpaceOnUse" gradientTransform="translate(725.589 752.5) rotate(90) scale(571.5 572.589)">
<stop stop-color="white" stop-opacity="0"/>
<stop offset="0.51169" stop-color="white" stop-opacity="0"/>
<stop offset="0.875761" stop-color="white" stop-opacity="0.02"/>
<stop offset="1" stop-color="white" stop-opacity="0.08"/>
</radialGradient>
<radialGradient id="paint4_angular_74_951" cx="0" cy="0" r="1" gradientUnits="userSpaceOnUse" gradientTransform="translate(724.5 752.5) rotate(90) scale(571.5)">
<stop stop-color="white" stop-opacity="0"/>
<stop offset="0.387339" stop-color="white" stop-opacity="0"/>
<stop offset="0.460711" stop-color="#FFF6F6"/>
<stop offset="0.54717" stop-color="#F0E8E8" stop-opacity="0"/>
<stop offset="1" stop-color="#999999" stop-opacity="0"/>
</radialGradient>
<radialGradient id="paint5_radial_74_951" cx="0" cy="0" r="1" gradientUnits="userSpaceOnUse" gradientTransform="translate(725.398 752.5) rotate(90) scale(471.5 472.398)">
<stop stop-color="white" stop-opacity="0"/>
<stop offset="0.51169" stop-color="white" stop-opacity="0"/>
<stop offset="0.875761" stop-color="white" stop-opacity="0.02"/>
<stop offset="1" stop-color="white" stop-opacity="0.08"/>
</radialGradient>
<radialGradient id="paint6_angular_74_951" cx="0" cy="0" r="1" gradientUnits="userSpaceOnUse" gradientTransform="translate(724.5 752.5) rotate(90) scale(471.5)">
<stop stop-color="white" stop-opacity="0"/>
<stop offset="0.387339" stop-color="white" stop-opacity="0"/>
<stop offset="0.460711" stop-color="#FFF6F6"/>
<stop offset="0.54717" stop-color="#F0E8E8" stop-opacity="0"/>
<stop offset="1" stop-color="#999999" stop-opacity="0"/>
</radialGradient>
<radialGradient id="paint7_radial_74_951" cx="0" cy="0" r="1" gradientUnits="userSpaceOnUse" gradientTransform="translate(725.208 752.5) rotate(90) scale(371.5 372.208)">
<stop stop-color="white" stop-opacity="0"/>
<stop offset="0.51169" stop-color="white" stop-opacity="0"/>
<stop offset="0.875761" stop-color="white" stop-opacity="0.02"/>
<stop offset="1" stop-color="white" stop-opacity="0.08"/>
</radialGradient>
<radialGradient id="paint8_angular_74_951" cx="0" cy="0" r="1" gradientUnits="userSpaceOnUse" gradientTransform="translate(724.5 752.5) rotate(90) scale(371.5)">
<stop stop-color="white" stop-opacity="0"/>
<stop offset="0.387339" stop-color="white" stop-opacity="0"/>
<stop offset="0.460711" stop-color="#FFF6F6"/>
<stop offset="0.54717" stop-color="#F0E8E8" stop-opacity="0"/>
<stop offset="1" stop-color="#999999" stop-opacity="0"/>
</radialGradient>
<radialGradient id="paint9_radial_74_951" cx="0" cy="0" r="1" gradientUnits="userSpaceOnUse" gradientTransform="translate(725.017 752.5) rotate(90) scale(271.5 272.017)">
<stop stop-color="white" stop-opacity="0"/>
<stop offset="0.51169" stop-color="white" stop-opacity="0"/>
<stop offset="0.875761" stop-color="white" stop-opacity="0.02"/>
<stop offset="1" stop-color="white" stop-opacity="0.08"/>
</radialGradient>
<radialGradient id="paint10_angular_74_951" cx="0" cy="0" r="1" gradientUnits="userSpaceOnUse" gradientTransform="translate(724.5 752.5) rotate(90) scale(271.5)">
<stop stop-color="white" stop-opacity="0"/>
<stop offset="0.387339" stop-color="white" stop-opacity="0"/>
<stop offset="0.460711" stop-color="#FFF6F6"/>
<stop offset="0.54717" stop-color="#F0E8E8" stop-opacity="0"/>
<stop offset="1" stop-color="#999999" stop-opacity="0"/>
</radialGradient>
<radialGradient id="paint11_angular_74_951" cx="0" cy="0" r="1" gradientUnits="userSpaceOnUse" gradientTransform="translate(725 753) rotate(90) scale(11)">
<stop stop-color="white" stop-opacity="0"/>
<stop offset="0.32281" stop-color="white" stop-opacity="0.2"/>
<stop offset="0.415916" stop-color="white"/>
<stop offset="0.491822" stop-color="white" stop-opacity="0.2"/>
<stop offset="1" stop-color="white" stop-opacity="0"/>
</radialGradient>
<radialGradient id="paint12_angular_74_951" cx="0" cy="0" r="1" gradientUnits="userSpaceOnUse" gradientTransform="translate(725 370) rotate(90) scale(11)">
<stop stop-color="white" stop-opacity="0"/>
<stop offset="0.32281" stop-color="white" stop-opacity="0.2"/>
<stop offset="0.415916" stop-color="white"/>
<stop offset="0.491822" stop-color="white" stop-opacity="0.2"/>
<stop offset="1" stop-color="white" stop-opacity="0"/>
</radialGradient>
<radialGradient id="paint13_angular_74_951" cx="0" cy="0" r="1" gradientUnits="userSpaceOnUse" gradientTransform="translate(725 470) rotate(90) scale(11)">
<stop stop-color="white" stop-opacity="0"/>
<stop offset="0.32281" stop-color="white" stop-opacity="0.2"/>
<stop offset="0.415916" stop-color="white"/>
<stop offset="0.491822" stop-color="white" stop-opacity="0.2"/>
<stop offset="1" stop-color="white" stop-opacity="0"/>
</radialGradient>
<radialGradient id="paint14_angular_74_951" cx="0" cy="0" r="1" gradientUnits="userSpaceOnUse" gradientTransform="translate(725 270) rotate(90) scale(11)">
<stop stop-color="white" stop-opacity="0"/>
<stop offset="0.32281" stop-color="white" stop-opacity="0.2"/>
<stop offset="0.415916" stop-color="white"/>
<stop offset="0.491822" stop-color="white" stop-opacity="0.2"/>
<stop offset="1" stop-color="white" stop-opacity="0"/>
</radialGradient>
<radialGradient id="paint15_angular_74_951" cx="0" cy="0" r="1" gradientUnits="userSpaceOnUse" gradientTransform="translate(725 181) rotate(90) scale(11)">
<stop stop-color="white" stop-opacity="0"/>
<stop offset="0.32281" stop-color="white" stop-opacity="0.2"/>
<stop offset="0.415916" stop-color="white"/>
<stop offset="0.491822" stop-color="white" stop-opacity="0.2"/>
<stop offset="1" stop-color="white" stop-opacity="0"/>
</radialGradient>
<radialGradient id="paint16_angular_74_951" cx="0" cy="0" r="1" gradientUnits="userSpaceOnUse" gradientTransform="translate(725 85) rotate(90) scale(11)">
<stop stop-color="white" stop-opacity="0"/>
<stop offset="0.32281" stop-color="white" stop-opacity="0.2"/>
<stop offset="0.415916" stop-color="white"/>
<stop offset="0.491822" stop-color="white" stop-opacity="0.2"/>
<stop offset="1" stop-color="white" stop-opacity="0"/>
</radialGradient>
<linearGradient id="paint17_linear_74_951" x1="725.5" y1="31" x2="725.5" y2="753" gradientUnits="userSpaceOnUse">
<stop stop-color="white" stop-opacity="0"/>
<stop offset="0.779338" stop-color="white"/>
<stop offset="1" stop-color="white" stop-opacity="0"/>
</linearGradient>
<linearGradient id="paint18_linear_74_951" x1="1087.43" y1="128.25" x2="726.433" y2="753.521" gradientUnits="userSpaceOnUse">
<stop stop-color="white" stop-opacity="0"/>
<stop offset="0.779338" stop-color="white"/>
<stop offset="1" stop-color="white" stop-opacity="0"/>
</linearGradient>
<linearGradient id="paint19_linear_74_951" x1="722" y1="0.5" x2="0" y2="0.5" gradientUnits="userSpaceOnUse">
<stop stop-color="white" stop-opacity="0"/>
<stop offset="0.779338" stop-color="white"/>
<stop offset="1" stop-color="white" stop-opacity="0"/>
</linearGradient>
<linearGradient id="paint20_linear_74_951" x1="1366.52" y1="392.433" x2="741.25" y2="753.433" gradientUnits="userSpaceOnUse">
<stop stop-color="white" stop-opacity="0"/>
<stop offset="0.779338" stop-color="white"/>
<stop offset="1" stop-color="white" stop-opacity="0"/>
</linearGradient>
<linearGradient id="paint21_linear_74_951" x1="722" y1="0.5" x2="0" y2="0.5" gradientUnits="userSpaceOnUse">
<stop stop-color="white" stop-opacity="0"/>
<stop offset="0.779338" stop-color="white"/>
<stop offset="1" stop-color="white" stop-opacity="0"/>
</linearGradient>
<linearGradient id="paint22_linear_74_951" x1="28" y1="752.5" x2="1423" y2="752.5" gradientUnits="userSpaceOnUse">
<stop stop-color="white" stop-opacity="0"/>
<stop offset="0.5" stop-color="white"/>
<stop offset="1" stop-color="white" stop-opacity="0"/>
</linearGradient>
</defs>
</svg>
