<?xml version="1.0" encoding="UTF-8" standalone="no"?>
<!DOCTYPE svg PUBLIC "-//W3C//DTD SVG 1.1//EN" "http://www.w3.org/Graphics/SVG/1.1/DTD/svg11.dtd">
<svg width="100%" height="100%" viewBox="0 0 151 98" version="1.1" xmlns="http://www.w3.org/2000/svg" xmlns:xlink="http://www.w3.org/1999/xlink" xml:space="preserve" xmlns:serif="http://www.serif.com/" style="fill-rule:evenodd;clip-rule:evenodd;stroke-linecap:round;stroke-linejoin:round;stroke-miterlimit:1.5;">
    <path d="M9.235,0L141.359,0C143.901,0 146.212,1.039 147.884,2.711C149.556,4.383 150.594,6.694 150.594,9.236L150.594,88.444C150.594,90.986 149.556,93.296 147.884,94.968C146.212,96.641 143.901,97.679 141.359,97.679L9.235,97.679C6.693,97.679 4.383,96.641 2.71,94.968C1.038,93.296 0,90.986 0,88.444L0,9.236C0,6.694 1.038,4.383 2.71,2.711C4.383,1.039 6.693,0 9.235,0Z" style="fill:url(#_Linear1);"/>
    <clipPath id="_clip2">
        <path d="M9.235,0L141.359,0C143.901,0 146.212,1.039 147.884,2.711C149.556,4.383 150.594,6.694 150.594,9.236L150.594,88.444C150.594,90.986 149.556,93.296 147.884,94.968C146.212,96.641 143.901,97.679 141.359,97.679L9.235,97.679C6.693,97.679 4.383,96.641 2.71,94.968C1.038,93.296 0,90.986 0,88.444L0,9.236C0,6.694 1.038,4.383 2.71,2.711C4.383,1.039 6.693,0 9.235,0Z"/>
    </clipPath>
    <g clip-path="url(#_clip2)">
        <g transform="matrix(1,0,0,0.903065,0,0.554101)">
            <path d="M141.427,33.744C145.185,33.744 148.231,37.117 148.231,41.278L148.231,96.949C148.231,101.111 145.185,104.484 141.427,104.484L9.573,104.484C5.815,104.484 2.769,101.111 2.769,96.949L2.769,41.278C2.769,37.117 5.815,33.744 9.573,33.744L141.427,33.744ZM22.159,82.52L26.492,82.52L26.492,65.842L35.803,82.52L40.483,82.52L40.483,56.944L36.15,56.944L36.15,74.024L26.697,56.944L22.159,56.944L22.159,82.52ZM63.089,82.52L67.752,82.52L67.752,56.944L63.089,56.944L63.089,82.52ZM92.857,77.199L95.013,77.199L95.013,70.16L103.481,70.16L103.481,77.199L105.637,77.199L105.637,62.265L103.481,62.265L103.481,68.398L95.013,68.398L95.013,62.265L92.857,62.265L92.857,77.199ZM42.171,56.944L42.171,82.52L50.947,82.52C52.67,82.52 54.046,82.34 55.075,81.979C56.451,81.491 57.543,80.81 58.352,79.938C59.423,78.787 60.248,77.28 60.826,75.42C61.298,73.896 61.535,72.081 61.535,69.976C61.535,67.58 61.282,65.568 60.778,63.94C60.274,62.3 59.539,60.916 58.573,59.788C57.606,58.66 56.446,57.874 55.091,57.432C54.082,57.107 52.617,56.944 50.695,56.944L42.171,56.944ZM46.835,61.271L48.93,61.271C50.832,61.271 52.108,61.352 52.759,61.515C53.631,61.724 54.35,62.125 54.917,62.719C55.485,63.312 55.926,64.138 56.241,65.196C56.556,66.254 56.713,67.772 56.713,69.75C56.713,71.727 56.556,73.291 56.241,74.443C55.926,75.582 55.516,76.402 55.012,76.902C54.518,77.403 53.893,77.757 53.137,77.967C52.559,78.13 51.619,78.211 50.317,78.211L46.835,78.211L46.835,61.271ZM81.217,41.545L79.921,41.545L79.921,97.122L81.217,97.122L81.217,41.545ZM111.44,77.199L114.029,77.199L118.118,71.993C118.274,71.79 118.533,71.416 118.896,70.873C119.141,71.233 119.378,71.566 119.608,71.871L123.708,77.199L126.375,77.199L120.208,69.304L125.931,62.265L123.586,62.265L120.308,66.228C119.811,66.819 119.382,67.386 119.019,67.929C118.759,67.501 118.322,66.89 117.707,66.095L114.751,62.265L112.184,62.265L117.741,69.416L111.44,77.199ZM73.837,56.944C72.662,56.944 71.709,58 71.709,59.3C71.709,60.601 72.662,61.656 73.837,61.656C75.011,61.656 75.964,60.601 75.964,59.3C75.964,58 75.011,56.944 73.837,56.944Z"/>
        </g>
    </g>
    <g transform="matrix(1,0,0,1.08101,21.0938,3.79499)">
        <g>
            <g>
                <g transform="matrix(0.904581,0,0,0.836793,4.42579,2.02381)">
                    <circle cx="73.198" cy="11.718" r="6.726" style="fill:none;stroke:black;stroke-width:1.11px;"/>
                </g>
                <g transform="matrix(0.539947,0,0,0.499484,31.1403,2.62572)">
                    <g transform="matrix(17,0,0,17,78.7151,24.5099)">
                    </g>
                    <text x="66.438px" y="24.51px" style="font-family:'Arial-BoldMT', 'Arial';font-weight:700;font-size:17px;">R</text>
                </g>
            </g>
            <g transform="matrix(1,0,0,0.925061,-13.3252,-2.65295)">
                <g transform="matrix(17,0,0,17,73.4289,21.7395)">
                </g>
                <text x="44.152px" y="21.74px" style="font-family:'Arial-BoldMT', 'Arial';font-weight:700;font-size:17px;">NDI</text>
            </g>
        </g>
    </g>
    <defs>
        <linearGradient id="_Linear1" x1="0" y1="0" x2="1" y2="0" gradientUnits="userSpaceOnUse" gradientTransform="matrix(118.714,118.714,-118.714,118.714,15.9384,-10.5179)"><stop offset="0" style="stop-color:rgb(253,249,133);stop-opacity:1"/><stop offset="0.3" style="stop-color:rgb(232,151,33);stop-opacity:1"/><stop offset="0.6" style="stop-color:rgb(249,233,115);stop-opacity:1"/><stop offset="0.7" style="stop-color:rgb(250,239,121);stop-opacity:1"/><stop offset="1" style="stop-color:rgb(232,151,33);stop-opacity:1"/></linearGradient>
    </defs>
</svg>
